<?xml version="1.0" encoding="UTF-8"?>
<!DOCTYPE svg PUBLIC "-//W3C//DTD SVG 1.1//EN" "http://www.w3.org/Graphics/SVG/1.1/DTD/svg11.dtd">
<!-- Creator: CorelDRAW Home & Student 2018 (Nie do użytku komercyjnego) -->
<svg xmlns="http://www.w3.org/2000/svg" xml:space="preserve" width="500px" height="500px" version="1.1" style="shape-rendering:geometricPrecision; text-rendering:geometricPrecision; image-rendering:optimizeQuality; fill-rule:evenodd; clip-rule:evenodd"
viewBox="0 0 500 500"
 xmlns:xlink="http://www.w3.org/1999/xlink">
 <defs>
  <style type="text/css">
   <![CDATA[
    .str3 {stroke:#003399;stroke-width:3;stroke-miterlimit:22.9256}
    .str0 {stroke:#2B2D33;stroke-width:3;stroke-miterlimit:22.9256}
    .str4 {stroke:#6666CC;stroke-width:3;stroke-miterlimit:22.9256}
    .str2 {stroke:white;stroke-width:3;stroke-miterlimit:22.9256}
    .str1 {stroke:black;stroke-width:0.756;stroke-miterlimit:22.9256}
    .fil0 {fill:none}
    .fil2 {fill:#1A1A1A}
    .fil1 {fill:#1E1F24}
    .fil3 {fill:#333333}
    .fil4 {fill:#4D4D4D}
   ]]>
  </style>
   <clipPath id="id0">
    <path d="M147.088 225.811c-12.785,-0.448 -26.625,0.887 -41.187,5.248 -7.646,2.29 -14.638,5.746 -21.02,10.151l62.207 6.974 0 -22.373zm34.623 26.264c-0.129,-0.021 -0.26,-0.039 -0.392,-0.054 0.132,0.015 0.263,0.033 0.392,0.054zm-13.958 79.616c0.128,-0.003 0.255,-0.007 0.382,-0.016 -0.127,0.009 -0.254,0.013 -0.382,0.016zm1.794 -0.236c0.106,-0.027 0.211,-0.055 0.316,-0.086 -0.105,0.031 -0.21,0.059 -0.316,0.086zm12.096 -10.594c0.019,-0.123 0.036,-0.247 0.05,-0.372 -0.014,0.125 -0.031,0.249 -0.05,0.372zm6.784 -60.82c0.001,-0.128 0,-0.257 -0.006,-0.384 0.006,0.127 0.007,0.256 0.006,0.384zm-2.379 -5.75l0 0 0 0zm-142.409 44.385c-4.983,12.817 -8.736,26.444 -11.414,40.039 -9.325,47.344 38.214,94.37 73.676,87.345 7.579,-1.502 22.346,-1.989 41.187,-1.598l0 -95.022 19.646 2.202 -117.267 -13.146c-4.372,-0.49 -7.549,-4.469 -7.058,-8.841l1.23 -10.979zm279.897 144.572c20.514,4.387 36.544,9.39 44.314,14.856 34.051,23.956 72.705,-35.863 76.051,-83.045 3.345,-47.182 -47,-143 -62,-168 -3.682,-6.137 -11.707,-15.917 -22.812,-25.071l0 249.26c0,6.6 -5.4,12 -12,12l-23.553 0z"/>
   </clipPath>
 </defs>
 <g id="Warstwa_x0020_1">
  <metadata id="CorelCorpID_0Corel-Layer"/>
  <rect class="fil0" width="500" height="500"/>
  <path class="fil1" d="M359.089 431.248c0,0 0.777,5.874 -3.267,8.209 -4.045,2.336 -11.922,3.791 -11.922,3.791l-151.489 0c22.121,10.669 40.357,20.304 49.494,28.814 31.92,26.446 106.001,-0.417 135.807,-19.75 43.291,-28.08 61.427,-67.963 68.666,-117.677 4.401,-30.226 -0.727,-38.321 -3.958,-65.603 -3.159,-26.672 18.98,-36.763 -3.287,-83.07 -12.235,-25.442 -12.316,-19.468 -34.146,-17.161 -22.304,2.357 -46.493,3.762 -68.463,6.97 7.518,-0.831 15.035,-1.665 22.554,-2.481 -0.1,85.98 0.011,171.976 0.011,257.958zm-22.961 -368.114c-5.617,-7.553 -9.906,-14.37 -12.223,-20.073 -13,-32 -84,-39 -118,-15 -11.579,8.173 -23.042,24.93 -34.783,44.185l142.191 0c5.543,-5.029 12.725,-8.333 20.712,-8.949l2.103 -0.163zm-22.817 9.114c-0.082,0.069 -2.718,2.288 -5.953,5.686 0.721,-0.614 1.467,-1.199 2.237,-1.754 1.135,-1.402 2.378,-2.718 3.716,-3.932zm-14.993 17.511l-0.009 0.015c-0.624,1.123 -1.126,2.425 -1.529,3.844 0.437,-1.321 0.951,-2.609 1.538,-3.859zm-2.941 19.924c0.188,6.023 0.882,10.805 0.882,10.805l2.952 36.163 -3.834 -46.968zm-148.289 2.699c-15.586,25.209 -32.045,47.906 -50.183,55.679 -42,18 -97,138 -55,187 21.116,24.637 63.974,47.013 105.183,66.725l0 -92.346 19.646 2.202 -117.267 -13.146c-4.372,-0.49 -7.549,-4.469 -7.058,-8.841l6.684 -59.627c0.282,-2.519 1.722,-4.641 3.727,-5.893 0.997,-0.623 2.133,-1.031 3.337,-1.166 1.521,-2.745 4.596,-4.464 7.896,-4.094l83.035 9.309 0 -135.802zm30.478 139.218l-0.045 -0.005 -1.178 -0.132 1.223 0.137zm-2.936 75.948c-0.309,0.556 -0.681,1.071 -1.106,1.534l2.109 -1.713c-0.328,0.081 -0.663,0.141 -1.003,0.179zm2.941 -0.935c1.25,-0.625 2.731,-1.668 3.221,-3.236l0 -0.002c-0.741,1.374 -1.869,2.496 -3.221,3.238zm10.596 -63.865l0.128 -1.145c0,0 0.599,-2.013 -0.313,-4.252 0.383,1.094 0.533,2.287 0.396,3.511l-0.211 1.886zm-21.424 68.895c0.184,0.024 3.16,0.378 4.943,-1.068l0.001 -0.002c-1.441,0.855 -3.16,1.268 -4.944,1.07z"/>
  <g>
  </g>
  <g style="clip-path:url(#id0)">
   <g>
    <g id="_700488584">
     <line class="fil0 str0" x1="49.547" y1="258.361" x2="-49.203" y2= "357.111" />
     <line class="fil0 str0" x1="81.954" y1="244.486" x2="-44.547" y2= "370.986" />
     <line class="fil0 str0" x1="211.454" y1="133.127" x2="-137.765" y2= "482.346" />
     <line class="fil0 str0" x1="228.649" y1="133.127" x2="-120.57" y2= "482.346" />
     <line class="fil0 str0" x1="244.246" y1="133.127" x2="-104.973" y2= "482.346" />
     <line class="fil0 str0" x1="264.002" y1="133.127" x2="-85.217" y2= "482.346" />
     <line class="fil0 str0" x1="281.197" y1="133.127" x2="-68.022" y2= "482.346" />
     <line class="fil0 str0" x1="296.795" y1="133.127" x2="-52.424" y2= "482.346" />
     <line class="fil0 str0" x1="315.527" y1="133.127" x2="-33.692" y2= "482.346" />
     <line class="fil0 str0" x1="332.722" y1="133.127" x2="-16.497" y2= "482.346" />
     <line class="fil0 str0" x1="348.32" y1="133.127" x2="-0.9" y2= "482.346" />
     <line class="fil0 str0" x1="369.539" y1="133.127" x2="20.32" y2= "482.346" />
     <line class="fil0 str0" x1="386.734" y1="133.127" x2="37.515" y2= "482.346" />
     <line class="fil0 str0" x1="402.332" y1="133.127" x2="53.113" y2= "482.346" />
     <line class="fil0 str0" x1="421.725" y1="133.127" x2="72.506" y2= "482.346" />
     <line class="fil0 str0" x1="438.92" y1="133.127" x2="89.701" y2= "482.346" />
     <line class="fil0 str0" x1="454.518" y1="133.127" x2="105.299" y2= "482.346" />
     <line class="fil0 str0" x1="421.725" y1="186.873" x2="72.506" y2= "536.092" />
     <line class="fil0 str0" x1="438.92" y1="186.873" x2="89.701" y2= "536.092" />
     <line class="fil0 str0" x1="454.518" y1="186.873" x2="105.299" y2= "536.092" />
     <line class="fil0 str0" x1="474.795" y1="186.873" x2="125.576" y2= "536.092" />
     <line class="fil0 str0" x1="491.99" y1="186.873" x2="142.771" y2= "536.092" />
     <line class="fil0 str0" x1="507.588" y1="186.873" x2="158.369" y2= "536.092" />
     <line class="fil0 str0" x1="474.795" y1="239.158" x2="125.576" y2= "588.377" />
     <line class="fil0 str0" x1="491.99" y1="239.158" x2="142.771" y2= "588.377" />
     <line class="fil0 str0" x1="507.588" y1="239.158" x2="158.369" y2= "588.377" />
     <line class="fil0 str0" x1="474.795" y1="292.301" x2="125.576" y2= "641.52" />
     <line class="fil0 str0" x1="491.99" y1="292.301" x2="142.771" y2= "641.52" />
     <line class="fil0 str0" x1="507.588" y1="292.301" x2="158.369" y2= "641.52" />
     <line class="fil0 str0" x1="526.66" y1="292.301" x2="177.441" y2= "641.52" />
    </g>
   </g>
  </g>
  <path class="fil0" d="M147.088 225.811c-12.785,-0.448 -26.625,0.887 -41.187,5.248 -7.646,2.29 -14.638,5.746 -21.02,10.151l62.207 6.974 0 -22.373zm34.623 26.264c-0.129,-0.021 -0.26,-0.039 -0.392,-0.054 0.132,0.015 0.263,0.033 0.392,0.054zm-13.958 79.616c0.128,-0.003 0.255,-0.007 0.382,-0.016 -0.127,0.009 -0.254,0.013 -0.382,0.016zm1.794 -0.236c0.106,-0.027 0.211,-0.055 0.316,-0.086 -0.105,0.031 -0.21,0.059 -0.316,0.086zm12.096 -10.594c0.019,-0.123 0.036,-0.247 0.05,-0.372 -0.014,0.125 -0.031,0.249 -0.05,0.372zm6.784 -60.82c0.001,-0.128 0,-0.257 -0.006,-0.384 0.006,0.127 0.007,0.256 0.006,0.384zm-2.379 -5.75l0 0 0 0zm-142.409 44.385c-4.983,12.817 -8.736,26.444 -11.414,40.039 -9.325,47.344 38.214,94.37 73.676,87.345 7.579,-1.502 22.346,-1.989 41.187,-1.598l0 -95.022 19.646 2.202 -117.267 -13.146c-4.372,-0.49 -7.549,-4.469 -7.058,-8.841l1.23 -10.979zm279.897 144.572c20.514,4.387 36.544,9.39 44.314,14.856 34.051,23.956 72.705,-35.863 76.051,-83.045 3.345,-47.182 -47,-143 -62,-168 -3.682,-6.137 -11.707,-15.917 -22.812,-25.071l0 249.26c0,6.6 -5.4,12 -12,12l-23.553 0z"/>
  <path class="fil2 str1" d="M147.088 96.617l148.851 0c-0.781,3.37 -1.064,6.91 -0.769,10.532l4.041 49.502 -9.025 44.389 46.338 -25.269c2.79,-0.474 11.479,-1.396 22.565,-2.494l0 215.215 -212.001 0 0 -59.052 19.646 2.202c3.3,0.37 6.375,-1.349 7.896,-4.094 3.625,-0.408 6.641,-3.289 7.063,-7.059l6.685 -59.627c0.282,-2.518 -0.652,-4.905 -2.33,-6.571l0 0 0 0c-1.236,-1.227 -2.875,-2.062 -4.729,-2.27l-34.231 -3.837 0 -151.567z"/>
  <path class="fil0 str2" d="M159.088 72.246l154.225 0c-1.34,1.216 -2.583,2.532 -3.719,3.935 -9.56,6.89 -15.446,18.444 -14.424,30.968l4.041 49.502 -9.025 44.389 46.338 -25.269c2.79,-0.474 11.479,-1.396 22.565,-2.494l0 257.971c0,6.6 -5.4,12 -12,12l-188.001 0c-6.6,0 -12,-5.4 -12,-12l0 -101.808 19.646 2.202c3.3,0.37 6.375,-1.349 7.896,-4.094 3.625,-0.408 6.641,-3.289 7.063,-7.059l6.685 -59.627c0.282,-2.518 -0.652,-4.905 -2.33,-6.571l0 0 0 0c-1.236,-1.227 -2.875,-2.062 -4.729,-2.27l-34.231 -3.837 0 -163.938c0,-6.6 5.4,-12 12,-12z"/>
  <circle class="fil0 str2" cx="253.089" cy="414.008" r="16.997"/>
  <line class="fil0 str2" x1="147.088" y1="96.617" x2="295.17" y2= "96.617" />
  <line class="fil0 str2" x1="147.588" y1="388.492" x2="359.589" y2= "388.492" />
  <path class="fil0 str2" d="M236.684 81.24l32.809 0c1.571,0 2.845,1.274 2.845,2.845 0,1.57 -1.274,2.845 -2.845,2.845l-32.809 0c-1.571,0 -2.845,-1.275 -2.845,-2.845 0,-1.571 1.274,-2.845 2.845,-2.845z"/>
  <g>
   <rect class="fil0 str2" transform="matrix(0.993775 0.111406 -0.111406 0.993775 56.103 237.984)" width="134" height="76" rx="8" ry="8"/>
   <polyline class="fil0 str2" points="58.939,240.041 118.453,283.211 186.048,254.291 "/>
   <rect class="fil0 str3" transform="matrix(0.993775 0.111406 -0.111406 0.993775 49.9842 242.078)" width="134" height="76" rx="8" ry="8"/>
   <polyline class="fil0 str3" points="52.82,244.135 112.334,287.305 179.929,258.385 "/>
  </g>
  <path class="fil3" d="M253.089 303.124c33.451,0 60.568,-27.118 60.568,-60.569 0,-17.325 -7.274,-32.949 -18.935,-43.989l-4.536 2.474 1.114 -5.478c-10.424,-8.486 -23.723,-13.576 -38.211,-13.576 -33.451,0 -60.569,27.118 -60.569,60.569 0,33.451 27.118,60.569 60.569,60.569z"/>
  <path class="fil4" d="M253.089 303.124c18.798,0 35.596,-8.565 46.706,-22.004 -4.382,-14.3 -15.148,-25.808 -28.977,-31.197 -4.685,4.25 -10.905,6.839 -17.729,6.839 -6.825,0 -13.044,-2.589 -17.73,-6.839 -13.828,5.389 -24.595,16.897 -28.976,31.197 11.109,13.439 27.907,22.004 46.706,22.004z"/>
  <circle class="fil4" cx="253.089" cy="230.361" r="22.581"/>
  <g>
   <path class="fil0 str4" d="M306.001 150.23l-9.025 44.39 46.338 -25.269c7.478,-1.272 57.334,-5.756 82.159,-8.248 19.073,-1.915 33.541,-18.32 32.065,-37.432l-2.683 -34.75c-1.476,-19.111 -18.32,-33.54 -37.432,-32.064l-83.398 6.44c-19.111,1.475 -33.624,18.327 -32.065,37.431l4.041 49.502z"/>
   <path class="fil0 str2" d="M299.211 156.65l-9.025 44.39 46.338 -25.268c7.477,-1.272 57.334,-5.756 82.159,-8.249 19.072,-1.915 33.541,-18.32 32.065,-37.431l-2.684 -34.75c-1.476,-19.112 -18.319,-33.541 -37.431,-32.065l-83.398 6.44c-19.111,1.476 -33.624,18.328 -32.065,37.432l4.041 49.501z"/>
  </g>
 </g>
</svg>
